<?xml version="1.0" standalone="no"?>
<!DOCTYPE svg PUBLIC "-//W3C//DTD SVG 20010904//EN"
 "http://www.w3.org/TR/2001/REC-SVG-20010904/DTD/svg10.dtd">
<svg version="1.0" xmlns="http://www.w3.org/2000/svg"
 width="500.000000pt" height="500.000000pt" viewBox="0 0 500.000000 500.000000"
 preserveAspectRatio="xMidYMid meet">
<metadata>
Created by potrace 1.14, written by Peter Selinger 2001-2017
</metadata>
<g transform="translate(0.000000,500.000000) scale(0.100000,-0.100000)"
fill="#000000" stroke="none">
<path d="M3846 3898 c-27 -38 -19 -66 36 -124 51 -54 51 -54 32 -75 -10 -12
-260 -262 -554 -556 -457 -458 -555 -550 -590 -557 -3 -1 -11 -5 -17 -9 -7 -5
-17 -6 -22 -2 -5 3 -12 1 -15 -3 -3 -5 -31 -9 -63 -8 -97 3 -150 35 -298 185
-151 151 -202 183 -300 184 -65 0 -125 -16 -165 -46 -20 -14 -1097 -1085
-1266 -1258 l-38 -39 1489 0 1490 1 55 22 c125 51 203 132 246 255 l23 67 1
600 0 599 158 158 157 158 55 -55 c61 -61 95 -70 130 -35 19 19 20 33 20 270
0 237 -1 251 -20 270 -19 19 -33 20 -274 20 -252 0 -255 0 -270 -22z"/>
<path d="M3490 1532 c-21 -7 -30 -23 -30 -52 0 -53 55 -69 84 -25 13 19 14 30
6 45 -13 24 -40 39 -60 32z"/>
<path d="M3290 1429 l0 -67 -37 19 c-61 31 -111 22 -157 -27 -66 -72 -46 -206
37 -249 32 -16 100 -12 132 9 22 14 25 14 25 1 0 -16 4 -17 60 -18 l35 -1 3
200 2 199 -50 1 -50 0 0 -67z m-14 -137 c14 -18 18 -60 8 -86 -3 -8 -22 -20
-41 -27 -31 -10 -39 -9 -62 8 -38 29 -41 84 -5 112 31 24 79 21 100 -7z"/>
<path d="M582 1293 l3 -198 127 2 c137 2 172 12 202 57 9 14 16 35 16 46 0 31
-27 78 -52 91 -19 10 -20 13 -6 23 35 26 47 76 27 119 -20 43 -67 57 -200 57
l-119 0 2 -197z m211 105 c27 -14 21 -47 -10 -54 -23 -6 -68 -8 -101 -5 -10 1
-10 41 0 57 9 13 86 15 111 2z m21 -154 c39 -38 6 -64 -81 -64 l-58 0 0 40 -1
40 62 0 c44 0 67 -5 78 -16z"/>
<path d="M2235 1295 c0 -107 3 -195 8 -196 9 -1 52 -1 76 0 17 1 18 10 17 111
-1 61 -1 110 1 110 2 0 7 -8 11 -18 13 -31 96 -172 101 -172 4 0 29 41 56 90
28 49 52 90 55 90 3 0 5 -44 4 -97 -1 -54 1 -102 5 -108 3 -5 25 -10 49 -10
l42 0 0 198 0 198 -51 -3 -50 -3 -39 -70 c-22 -38 -44 -80 -49 -92 -17 -36
-26 -33 -52 15 -81 155 -79 152 -134 152 l-51 0 1 -195z"/>
<path d="M2032 1469 c-15 -6 -20 -15 -18 -34 3 -24 -8 -40 -29 -40 -5 0 -10
-18 -10 -40 0 -34 3 -40 20 -37 18 2 20 -3 20 -70 -1 -93 11 -127 51 -144 35
-14 82 -10 102 10 20 19 -1 66 -26 59 -27 -7 -34 8 -36 83 -2 54 0 64 13 63
43 -4 48 1 47 38 -1 31 -5 38 -21 38 -32 0 -43 13 -40 45 1 16 0 30 -4 31 -37
5 -51 4 -69 -2z"/>
<path d="M1065 1385 c-135 -63 -135 -219 0 -280 66 -29 166 4 206 69 73 119
-76 272 -206 211z m95 -80 c52 -27 52 -93 -1 -120 -34 -18 -58 -14 -84 15 -29
33 -27 67 7 95 35 29 40 30 78 10z"/>
<path d="M1430 1387 c-14 -6 -39 -25 -57 -43 -64 -64 -53 -164 25 -218 93 -65
221 -23 253 84 26 87 -50 182 -149 186 -26 1 -58 -3 -72 -9z m100 -84 c51 -30
42 -99 -16 -125 -19 -9 -30 -8 -50 3 -54 29 -56 100 -4 126 32 16 37 16 70 -4z"/>
<path d="M1764 1391 c-39 -17 -66 -62 -60 -101 7 -44 35 -67 91 -76 49 -7 78
-30 56 -43 -17 -11 -65 -4 -100 14 -29 14 -30 14 -45 -17 -9 -17 -16 -32 -16
-33 0 -7 73 -36 103 -40 79 -13 157 34 157 94 0 47 -43 82 -118 97 -30 6 -43
15 -40 26 6 17 38 18 76 2 19 -8 36 -13 37 -12 0 2 9 15 18 30 l17 28 -37 18
c-42 20 -106 26 -139 13z"/>
<path d="M2806 1383 c-60 -32 -87 -73 -88 -132 -1 -51 25 -101 66 -129 55 -37
157 -36 195 3 14 14 13 18 -12 42 -23 24 -30 26 -47 15 -36 -22 -71 -15 -98
20 -12 15 -5 16 80 16 51 0 99 1 106 1 17 1 15 56 -4 94 -41 79 -127 109 -198
70z m109 -83 c18 -20 17 -20 -45 -20 -63 0 -63 0 -44 19 25 26 66 26 89 1z"/>
<path d="M3459 1391 c-5 -20 -4 -291 1 -292 3 0 23 -2 45 -2 l40 -2 3 150 2
151 -45 0 c-25 1 -46 -2 -46 -5z"/>
<path d="M3705 1394 c-28 -7 -75 -26 -75 -30 0 -2 5 -15 12 -29 9 -20 16 -25
32 -19 43 14 98 9 112 -11 21 -28 17 -34 -18 -26 -18 4 -39 6 -45 5 -7 -1 -22
-2 -34 -3 -30 -2 -89 -64 -89 -94 0 -65 83 -110 157 -84 32 11 43 11 46 2 5
-11 68 -12 86 0 5 3 8 53 6 112 -4 106 -4 107 -37 140 -27 27 -43 34 -83 38
-28 2 -59 2 -70 -1z m83 -173 c14 -1 16 -29 3 -49 -4 -7 -22 -15 -38 -18 -56
-9 -80 47 -29 66 12 4 28 6 36 4 8 -1 21 -3 28 -3z"/>
</g>
</svg>
